<svg xmlns="http://www.w3.org/2000/svg" viewBox="0 0 64 64" width="64" height="64">
  <defs>
    <linearGradient id="g1" x1="0" y1="1" x2="1" y2="0">
      <stop offset="0%" stop-color="#3b28cc"/>
      <stop offset="50%" stop-color="#7c3aed"/>
      <stop offset="100%" stop-color="#6366f1"/>
    </linearGradient>
    <linearGradient id="g2" x1="0" y1="1" x2="1" y2="0">
      <stop offset="0%" stop-color="#6366f1"/>
      <stop offset="100%" stop-color="#38bdf8"/>
    </linearGradient>
  </defs>
  <!-- U shape -->
  <path d="M 10 12 L 10 42 C 10 52 18 58 28 58 L 42 58 C 46 58 50 54 50 50 L 50 30" 
        stroke="url(#g1)" stroke-width="10" stroke-linecap="round" stroke-linejoin="round" fill="none"/>
  <!-- Upward arrow -->
  <path d="M 34 40 L 54 14" stroke="url(#g2)" stroke-width="9" stroke-linecap="round" fill="none"/>
  <path d="M 54 14 L 38 16" stroke="url(#g2)" stroke-width="8" stroke-linecap="round" fill="none"/>
  <path d="M 54 14 L 52 30" stroke="url(#g2)" stroke-width="8" stroke-linecap="round" fill="none"/>
  <!-- Star -->
  <path d="M 54 2 L 56 7 L 61 7.5 L 57.5 11 L 58.5 16 L 54 13.5 L 49.5 16 L 50.5 11 L 47 7.5 L 52 7 Z" 
        fill="url(#g1)"/>
</svg>
